<mxfile host="app.diagrams.net" modified="2023-11-08T14:04:55.481Z" agent="Mozilla/5.0 (Windows NT 10.0; Win64; x64) AppleWebKit/537.36 (KHTML, like Gecko) Chrome/119.0.0.0 Safari/537.36" etag="VYmDd9Q8iBdCBvEv-a1R" version="22.0.8" type="github">
  <diagram name="Page-1" id="e3a06f82-3646-2815-327d-82caf3d4e204">
    <mxGraphModel dx="1420" dy="744" grid="0" gridSize="10" guides="1" tooltips="1" connect="1" arrows="1" fold="1" page="1" pageScale="1" pageWidth="827" pageHeight="1169" background="none" math="0" shadow="0">
      <root>
        <mxCell id="0" style=";html=1;" />
        <mxCell id="1" style=";html=1;" parent="0" />
        <mxCell id="bRI3MN9ANpLZSxHK5Ll--1" value="" style="shape=image;verticalLabelPosition=bottom;labelBackgroundColor=default;verticalAlign=top;aspect=fixed;imageAspect=0;image=data:image/png,iVBORw0KGgoAAAANSUhEUgAAAUwAAAEaCAYAAAB6uW61AAAgAElEQVR4Ae2d+XNU55rf/W/Exr41kzuppFJTNTP3t8zNndRUKlXJVOZez0wl88P8lMlNUpnMBUlIYDDYBmNjjLq1gQwIhAUXzGLwgm0E6k27kISQEFrRwiIkQLvU+znnm3rf00JoQXS3ejnLt6uE1N3n3T7P4Vvve97nfZ43wBcJkAAJkEBcBN5YfZWiKhgfG4OmadAAqJr4ly8SIAESIAEKJu8BEiABEoiTwErB1DSEIxH8p//4l7h/f1DOMMVMky8SIAESIAFgpWACOHO6ElveeQv/9L9/i6iiyqU5QZEACZAACQBvqKoK8SNmkuFIFH/xq19iy5Y38Ud/9C/RfquFgsm7hARIgARiBN4QmzriRwimnF1ueRPv/GwL3n7nLfzFv/9zLAYCFE3eLiRAAiQAOcPUoKqaXH7/9V/9Z7zz9lt4661/gbe3vIm339mCqspTBEUCJEACJKALpr4kb21uxM/+4B38t7/5DX71q1/i//zP/4F//W/+FX79V/9FCippkQAJkIDdCbwh9sDFT3lpMWqqr0PVgL9999fw+/2YnplB4aHPcLej3e6cOH4SIAESWN4ll8IpXIg0DX/37m/gDwaJhwRIgARI4CUCa9yKdMH8NQLB0EuX8U8SIAESIAEKJu8BEiABEoiTwArBlGd6NA1/++5vOMOMEyAvIwESsA8BCqZ9bM2RkgAJbJIABXOTAFmcBEjAPgQomPaxNUdKAiSwSQIUzE0CZHESIAH7EKBg2sfWHCkJkMAmCVAwNwmQxUmABOxDgIJpH1tzpCRAApskQMHcJEAWJwESsA8BCqZ9bM2RkgAJbJIABXOTAFmcBEjAPgQomPaxNUdKAnEREAm29SwMirxeT7gdV1HLX0TBtLyJOUASSIyApqlQVEWmptFkvi81FjU3sXqseDUF04pW5ZhIIEkCegAeBR09T1D17V0EgmEIARVhH/lalWaX0Yp4S5AACQhxvHC9DzvLahGOKlAUfWlOMhRM3gMkQAIrCOgZZEvP30bhmVtyKS6eZ/KlE+CSnHcCCZDACgKKqmHP0Vr8/odeAIrM8wWI55h8UTB5D5AACbxEQMOz6QDyHC7UtY7qmz2cYb7gQ8F8gYJ/kAAJCAJdvU+w1eHC4IMZOcMklWUCFMxlFvyLBEgAQHXtIHKLvPD7w7HdcS7Hl24MCuYSCf4mARKAcFI/daUTH1c0ksY6BCiY60DhRyRgVwJiP/zjE42ouNplVwQbjpuCuSEefkkCdiGgH4CcWwghz+lBdf2QnG3aZfTxjpOCGS8pXkcCFiYgTvOI2WVn71Nsc7gxODpp4dEmPzQKZvLsWJIELERAlWfHr/mGsb3IhWAowuOQ61iXgrkOFH5EAnYjsHRe/OTVTuw/0SjF024M4hkvBTMeSryGBCxOYCmk2/5j9Tj1zT3pf8kDkWuNTsFcy4SfkIDtCIgZ5siTBeQ53fA0j8oIRRTMtbcBBXMtE35CArYjIAJsXPP0I8fhxoMnc1ySv+IOoGC+Agw/JgH7ENA3fAorG7GjxIdglPEvX2V7CuaryPBzErANAQ1z8yHkOj0orGqFKgIGq2JBzkX56luAgrmaCN+TgA0J3LknAm54cKG6n0K5gf0pmBvA4VckYBcCX13vQ06hBx2943YZclLjpGAmhY2FSMBaBA5VtmB7cS0W/CFrDSzFo6FgphgoqyMB0xDQhPelhrnFsDzdc+SrO3rCM9MMIPMdpWBmnjlbJAFDEJByqWm4O/gc2wpdqGsf4/PL11iGgvkaQPyaBKxKQAbc0BRcdQ8gv9iL2YUwRD4fvl5NgIL5ajb8hgQsTUBmg9Q0FJ9txedn26BqUQbceI3FKZivAcSvScDKBOYDIRQU+fCNawB6Ol3OMDeyNwVzIzr8jgQsTECsvu/ceyYTnvWPTEpndfFck69XE6BgvpoNvyEBSxPQNAUXfurFrrI6hMRxSLlnTsHcyOgUzI3o8DsSsDABcQTy08pbKDvfDkAch1T0Y5EWHvNmh0bB3CxBlicBkxKY90dQUOzBd55BfSEe88s06XAy0m0KZkYwsxESMB6Bls5x/K7QhaGH08brnEF7RME0qGHYLRJIN4FT33Vjb3kdVPpexo2aghk3Kl5IAuYnsLQLrqgq9pb7cPq7ezwOmYBZKZgJwOKlJGB2AsLXUkwo7z+YRk6hGy2dj+msnoBRKZgJwOKlJGB2AsKVSDgO/ei7LwMGz84FIT7jKz4CFMz4OPEqErAEAU3shGtRlJzvwCeVzYAUUPpexmtcCma8pHgdCViAgFiSz8wHkF/kwdWafv04pEbBjNe0FMx4SfE6ErACATUqhXKbw43hRzMyO+TSRpAVhpfuMVAw002Y9ZOAgQgEQhHsLvNi//FGuhMlYRcKZhLQWIQEzEqgrWsMYnZ54XqPWYeQ1X5TMLOKn42TQGYJnLnWjbxCN9p7n2W2YYu0RsG0iCE5DBJ4FQGxpSMCbYgTPfuON+D9sjosBJjs7FW8NvqcgrkRHX5HApYhoGHo4RR+5/TgSk0/ndWTtCsFM0lwLEYCpiGgqRBHIS9V92FnqQ9T82Eeh0zSeBTMJMGxGAmYh4CGiKJg/7F6lF++I2eXYonOV+IEKJiJM2MJEjAVAfEMs+f+c2xzeNDerafSpe9lciakYCbHjaVIwDwENBVXbvRie4kXi4GIPEtOwUzOfBTM5LixFAmYhoDYHf/0VDOOyFQUpum2ITtKwTSkWdgpEkgdgdFH08hxuFHX9ih1ldq0JgqmTQ3PYduBgCZ9Ly9f70VBiRf+QNgOg07rGCmYacXLykkgSwQ0DYqmIBwOYc/ROlRcFbvj3BnfrDUomJslyPIkYEACmjjZoylo7x5HTqELXQNPoaoUzM2aioK5WYIsTwIGJCCCBAvBrPz2LnaV1iKsCLGkYG7WVBTMzRJkeRIwIAERWd0fCmHPkVqc+qYrthxnoODNmoqCuVmCLE8ChiSg4pp7BFsdNei7/0wehRQiytfmCFAwN8ePpUnAYAT0hGaz8wEUFNdgf0WzzBJpsE6atjsUTNOajh0ngZUExOkdMYcU//7oG0ZOkRs/1Q7LT1ZeyXfJEqBgJkuO5UjAiAQ0DVFVReGXTch1uvF00m/EXpq2TxRM05qOHSeBtQTEc8qxp3PIc7hx9GKH3CkXc06+UkOAgpkajqyFBLJOQJXrcRUXq3tRUOzGxEwIUMUzTQpmqoxDwUwVSdZDAgYg4A9GsPuoD19+c0d/nqkpjK6eQrtQMFMIk1WRQHYJaPC1PECew4X+B9OxqOp0Vk+lTSiYqaTJukggmwQ0DQcqW+CsaoZ4limORzLuZWoNQsFMLU/WRgKZJ6ApUhhHxmaR46jBzYZRuQznk8vUm4KCmXqmrJEEMkZA7vOIKESaiss3+rCj2IupWabQTZcBKJjpIst6SSBDBBRNxWJQwe4yHyq/6WJUojRyp2CmES6rJoFMEBCRiW40DCHX4cPwo2moMjIRF+TpYE/BTAdV1kkCGSOgIhSJ4uNjdSg6f1vfGWeg4LTRp2CmDS0rJoH0ExDzyKs3B7HN4UJn71OI5fnSifL0t26/FiiY9rM5R2wBAsJtSNWimF0IIa/YjX1fNMj8PRYYmqGHQME0tHnYORJYn4BInatpCn6sFc8uPbjqHgS06PoX89OUEaBgpgwlKyKBzBEQ+XmC4Sg+LK/DjjIf5ub9PDGeAfwUzAxAZhMkkGoCqqrA1fQAOQ4XmjrGId4zZ0+qKa+tj4K5lgk/IQHDE4hGI/jweDPKzt2SzzLF8pxRidJvNgpm+hmzBRJIEYFl38ra1ofILXShe+CZFErxTJOCmSLMG1RDwdwADr8iASMRWAqoIcTx4OkWHKhoijmpG6mX1u4LBdPa9uXoLERATCLFZs/AyKR8dnmjYYTPLTNsXwpmhoGzORJIloD0vVQVlJ5vxwflDQiEwgwOnCzMJMtRMJMEx2IkkGkC4sx47/AUch1u3GwckTEv+dwys1agYGaWN1sjgaQJqJqKwrO38cnxOoQjUQYITppk8gUpmMmzY0kSyAgBudkDDe7GIeQ4vfC0jsodcUZTzwj+FY1QMFfg4BsSMBYBMavUVA0zC0HsLKnHe0d9CId5BDJbVqJgZos82yWBOAmInfFvXf3Ic97Ed+4BKNqyP2acVfCyFBGgYKYIJKshgXQQENI4PRfEjlIvPjhWD38gIoNupKMt1vl6AhTM1zPiFSSQRQIKfn+tB/nFHgw/noUqskEyzEbW7EHBzBp6NkwCryfweGJBxru8VN0Xi6aup899fUlekQ4CFMx0UGWdJLBJAjKnuKrg6Fcd2HWkDvN+ZoLcJNKUFKdgpgQjKyGBVBNQMfxoClsdLlx19UNR1VQ3wPqSIEDBTAIai5BAugmInfGKrzuxq7QWk7MBqApdidLNPJ76KZjxUOI1JJAxAnrqiXtDk9ju9OJH31BsV5yuRBkzwQYNUTA3gMOvSCDTBIQsRqIKDla2YN+JZnkEEpoSOzee6d6wvdUEKJirifA9CWSLgKYhomo49/1dGWCjvfuJFEqxAcQgG9kyysp2KZgrefAdCWSHgKZBUaNo7niIXGcNSi/ckUtxLsSzY45XtUrBfBUZfk4CGSQghFEI5v6KZmw9XIPhB1NQRCrdDPaBTb2eAAXz9Yx4BQmkkYAuikIYG24/Qp6jBpere6Co4rklXYnSCD6pqimYSWFjIRJIEQFNk2knFvxh7D3iQ+HZdiicVqYIbuqroWCmnilrJIEECCjybHjVd93IK/bg8fhsAmV5aaYJUDAzTZztkcBLBBRNRc/958grcuNqTZ9+oofh214iZKw/KZjGsgd7YzMCmhqF88wt7CrxYj4Q4nNLg9ufgmlwA7F71ibQ1v0EeQ43rtcNQVX0jR5u9hjX5hRM49qGPbMoARnRUtMwNx/EB8cacPB0K6JR7oqbwdwUTDNYiX20FgFNxaI/iE9PNiK/yIORx9NcipvEwhRMkxiK3bQOAbHkrvquCzlOD75xDwAi0Rl9Lk1hYAqmKczETpqdgL4MVwFNw+2ecWx3unDkq3aEo2rsNA+dL81gYwqmGazEPlqAgIaoqkFRVOw72YwPjjRgPuCHqjGshpmMS8E0k7XYV/MS0BSoqoaaxiEZRb2+7QFUVWEUIpNZlIJpMoOxu+YkIMRybGIWecU+HL/UIcVSY9oJ0xmTgmk6k7HDZiQQjUZxsLIVH5bXYWY+IONcqtzoMZ0pKZimMxk7bC4CmnxOeeVGH/KcLtzpjQUFFoPgEUhzmRIABdN0JmOHTUMgFonI3fIAOU4vLvwkwrYxZJtp7LdORymY60DhRySQCgLCt3Lo4RTynDfw/tE6BIJB+lumAmwW66BgZhE+m7YuAeF3GY1G8HlVG7Y5vGhoH6VYWsDcFEwLGJFDMBYBVbgQKVFcrO5FjsOFmrr7MualsXrJ3iRDgIKZDDWWIYENCAgXora7j1HgrMGl6n5E6G+5AS1zfUXBNJe92FtDElg61ih+K3g65cf7ZT58XtWKUEREIRIO6nxZgQAF0wpW5BiyS0CmyBUBNDSEQhEc+rIFu4/U4cnkgnxuqQjBpAtRdm2UotYpmCkCyWrsTSAqlt1KBNdqh5DrcMHdMipFUs8JKdgszULtzcnso6dgmt2C7L8hCAgXoruDz2SqCee5doiTPctiKbpIwTSEoTbZCQrmJgGyOAmomoae/gn8c7Eb+76ox+yC8LekQFrxzqBgWtGqHFNGCTyd9OO9Iz7sKvZh8MEkRCZIPbAGRTOjhshAYxTMDEBmE9YkIMKzBYNhHDzVhD1HavVUE1x6W9PYsVFRMC1tXg4unQQiSgRHL3WioMiDrsFnUNQoT/OkE7gB6qZgGsAI7II5CTS1P8Y2pxuXrndDFUE1VGXVRo85x8Vev5oABfPVbPgNCawhIE7xiB3xx08XUHCkFp9XtiAQiqy5jh9YkwAF05p25ajSREBVI3g+E8THFfX46Ggdnk3pzulpao7VGowABdNgBmF3jEdA3+sW/2oYHZuRUdPzxY746BRE1PSV/pbG6z97lDoCFMzUsWRNFiUgluDCr3Jq1o+9xxqRX+RCa+eYRUfLYW1EgIK5ER1+RwIAhGO6PxDG4dO38F6ZD3f7nkKREYiIx24EKJh2szjHGxcBuQyPndYRy+5zP/Tgdw43altHAE24D9EpPS6QFruIgmkxg3I4qSKgyuAZQiyb7zxGvvMmTl7tQjiqRx6iYKaKs7nqoWCay17sbYYIiI0cIYp3B8axs9iL4nOtCIYjepg2ObtkjMsMmcJQzVAwDWUOdibbBMTzSkCVzyjb7z3FztJafFbZBL8/JJ3T9b1yLsezbadstU/BzBZ5tmtIAuJ8uHBOr2keRYGjBh+faMDMnF+KpQwEbMhes1OZIkDBzBRptmMCApoUxsbbD5Dr9OJARQMmni/Kpbm+RGdOcRMYMa1dpGCmFS8rNwUBTT8DLjZ4xiZmkF9ci49ONGJuMQqFu+GmMGGmOknBzBRptmNQAhqU2Pnw2bkgDlQ04r0yD4YfzQBaGCofVxrUbtnpFgUzO9zZqlEIyARmUSwsBnHwdDPeK/FgYHRaLsNloA158JGqaRRzZbsfFMxsW4DtZ4XA0nFHTVUwNbeIQ6dbsKPMh577elxL5uDJilkM3ygF0/AmYgfTQUD4WIp84ffuP8OHR3zILfHh3sBTuekTketwbvCkg7vZ66Rgmt2C7H9SBFRNwcysH7vKfNjmcKH2ljjyKE73xH6SqpWFrE6Agml1C3N8KwjII42aKp9ZHjp9C9tLauFqGdWDaWg8vbMCFt+sIUDBXIOEH1iVgKZGpTDOzAfwWWUz8ku86Bp4KjM8KlqUucOtavgUjouCmUKYrMqYBHTXIE36VM7MBfDpySZsL/Gi5/5zQPhgimU45dKYxjNYryiYBjMIu5NaAsIZXSQnU1QVI49nsL+iEbtLfegfeqYLJR3TUwvc4rVRMC1uYNsPT84gNdS1jSK/2ItdR2tXpJZYml3anhMBxEWAghkXJl5kNgJ6VCERjU3F7YGnyHN6keOoQXf/hAyuISISQbgWmW1g7G9WCVAws4qfjaeHgFiGi6joKvqGJ7GnzIcPjzWgf2RSLs9lDvH0NMxaLU6AgmlxA9txeGLWKJ5Z3r43hp0lXuw/VY/pmQW56SP8Lxkt3Y53RWrGTMFMDUfWYgACmqpCkZs8KmrbRpBX5MbhqlbMLgZjqXC5ADeAmUzdBQqmqc3Hzr9MQFUULCyGUPlNJ3KcHpRdbEcoGJZLc27uvEyKfydLgIKZLDmWMxyBiakFfFbZghynF1XfdyMcicqZpYw6FPO1NFyn2SFTEaBgmspc7OxqAiKlRFRRseAP4sDJBhQ4vbhS04WwounnwlcX4HsS2AQBCuYm4LFo9gkIwZxbCMFxthX5Ti9qGoflho9cgmsq3YaybyJL9YCCaSlz2m8wjydmsP9EPXaUetHePQ4hoJomluIioiU3eex3R6R3xBTM9PJl7WkgsLQMFzvhu8tqsau8DiMipQRfJJBmAhTMNANm9aknsBgMo+JyB7Y5vHKTZ3J6EfLMeOqbYo0ksIIABXMFDr4xEoHlJbVMciu7NjEVwKHKZmwv8uDy9R4EQlF51JHO6EaynHX7QsG0rm1NPzLxBFK4BEVUVfpSzs0Hse9YI7Y6PahrfYgoUzqa3sZmGwAF02wWs1V/NYijjCJtxJNn8zhwshEFRV64Wx7IfDycVdrqZjDEYCmYhjADO7GSQCygr0iBq0Rxs2lE5t7Zc7QBvUPP9VC/mqqL6cqCfEcCaSVAwUwrXlaeKAH5tFLTEFWjmFsIoOxcK3KdXhz+8hYmp+fk0jzROnk9CaSKAAUzVSRZT4oIiPS3Ku4/mMJHxxqwo8SLHzy9CIYj0iFdVUXuHb5IIDsEKJjZ4c5WVxF44WiuaahpfoDtxR58dKJZppVYPgtOR/RV2Pg2wwQomBkGzubWISACY4jo55qKa7XDKHC4se8LEcMyEEtSRqFchxo/ygIBCmYWoLPJlQSEd9DklB/Hv+6QzysLz7Rictovd8LFs0whpnyRgBEIUDCNYAUb9WHZGV3MKvUUt233xrHniBe5whm9ugfhiLKSiBRMiuZKKHyXDQIUzGxQt3ObQvxUsfxWEIpEcbG6F/mOGhyq6sDwwyn5uZ3xcOzGJkDBNLZ9LNc76TakRvBofAaff3kLeU43LlT3IhiJQkRMpzO65UxuqQFRMC1lTqMORgTzVaCpUSwGIvjGPYD3Sr3YfbQBd3rG6VtpVLOxX2sIUDDXIOEHKScQc0T3B8M4XNWCXGcN9pbXY+LZPETKW+bbSTlxVpgmAhTMNIFltcsExPPKkUezOFjZhDynB8e/voOJ57pY6gF/9aOQyyX4FwkYkwAF05h2MWmvlneyZXxKVUE4GkZ13RC2F/uwp7wBdwef0bfSpNZltwEKJu+CtBAQy+zBh9MoPtuCXIcHp652YtEflJs6Inf4sntRWppnpSSQFgIUzLRgtVulYmYZm11qqswNXnW1CwVON3Yf9aH5zhhU4U605E8pf9uNEcdrBQIUTCtYMYtj0KMLKRCzRvE8sq17HHu/qENusRuV3/dgesa/JKVZ7CWbJoHUEKBgpoajfWvRNBkVHWoU1fVDyHPWYFexB119zwEtiqjKDR373hzWGzkF03o2TeuIVj97FM8qJ6fmUXGlE3kONz6vbMHI2OyLVLcABTOtBmHlGSVAwcwobpM3Fjv7LVJGiNzfInvjhZ965PI7v8SLH31D8rijJo4+ciFucmOz++sRoGCuR4WfrU9ACqXIs6Oi494TfHS8HvlODyoud2FsYg6KosjvKJbr4+On5idAwTS/DdM8Aj1OpTjjrakRzMz5cUqGYfPgs8pbGBid1mNZLvWCO+BLJPjbggQomBY0aiqHpEiPIQ2KquFO7zjeP1qLHKcPJy93IRCOMlhGKmGzLsMToGAa3kRZ7qCmYXJ6AccudyDP6cKu0lrUNN5HNBqWu+OMLpRl+7D5jBKgYGYUtwkak6kixPJblSHXqmvvY0eJD7tKvbjwUx+m5oRfpe6kHnNVN8Gg2EUSSA0BCmZqOFqglqVnlWIHXENn/xN8UtGEHIcHX1zuxDOZMiIKqPrGjgUGzCGQQMIEKJgJI7NuAeFT2X5vHI6qJuQ63fj0VCPu9o/LEGzyaCP01BEMx2bde4Aj25gABXNjPpb8VgiemEWKHN/CZ1Ica3w0MY/yCx3IcdzE++X1uF47iEhE5ADnwtuSNwEHlRQBCmZS2MxdSEqgeFapiPPfEdS1P8F7xV78P6cLX37XjUAoyg0dc5uYvU8TAQpmmsAauVoRJENRoxgYncSxy3eQ63Rh3/F63LrzWAqlqorZpyJ/ljZ4jDwe9o0EMkWAgpkp0lluR5zO0ZfhKu4/nEbpuVZ59ntXmQ/VtYMIhcXymy8SIIGNCFAwN6Jjke/EElykiRifXMTJq53Id7qwp7wO33kGMT0flt+pfFRpEWtzGOkkQMFMJ90s1y1nlBowMR3Axev3sKPYjYJSL771DMjAGS8C+nJjJ8uWYvNmIUDBNIul4uzn0mxSUVU8HJ9F+eVO6SJUUOxB1bVezMwF4qyJl5EACawmQMFcTcT07/X839X1o3iv2IMcpxuHTjViYGQ6tpHDtbfpTcwBZI0ABTNr6FPQ8Et5csQzSPHTPfgch8+0Itfhxicnm9Da+TgWdu2lnDopaJpVkIAdCVAwTWx1RROuPyrC4ShcTQ9woKIFuU4P9h+vR13bI0QUVQ+9pjHquYnNzK4biAAF00DGSLQrwhXI3TSKfccbkONw4eDpZnhbRxGKCId04UakxASTy/BE2fJ6EliPAAVzPSpG+0zMEGUUIQXiWGMgEMaNhmF89EWtFMqSc224NzQlBVLsjOvHGXWRpOO50YzJ/piZAAXT4NYTsieeTYrZ4uj4PE5/2428Yh+2OTwoPt+BvqHnsayNuqgKB3W+SIAE0kOAgpkerimoVRc+IZZi6f11TR8KinzIcdTg4+MNaO96CFXk0BFLbzmnjG3qMEVECtizChJYnwAFc30uGf40tuSOheYVy24RTi0QDKOmcRT7TzRiW6Ebh043o/nOGEJh/dnkcgrb5VmlvhDPcPfZHAnYhAAF0xCGFpkYRcALFZqqYOjRLCqvdmBnsUue9y7+fSs6eycgnNHFM0mR4laPT2mIzrMTJGAbAhTMLJt6aVNGUaK43TOO0vMd2Op0QwTFOP19D/pHp6U46jEsl5fp+rHGLHeezZOAzQhQMDNocDEzFLlylna8RQBfERDje98gDpxsRK6zBh8db8SNhiH4g4welEHTsCkSiIsABTMuTKm5SCypIZ9Pqrg3+Ayll7qQX+TBdqcbhWda0dL5BMGI7j+puwelpl3WQgIkkBoCFMzUcIyvFi2KsWcLKDnXjnyHeD7pgvCh7B+dkW5D8hnli+OOyxs58VXOq0iABNJNgIKZJsLymSPERo6GYFhBfdtjlF9oxY7iWmwvcqHsQge6+/WNnDR1gdWSAAmkmAAFM8VA9eqE24+KsafzuHKjF3uPCEdzFz441oQLN/ow/nxentgR13DzJi0GYKUkkBYCFMyksK4+dhjzftRUzM4HUXvrAYrO3UZOkRs7in2ouNKJ/uFJ6Rak+04qMfcg6SSUVA9YiARIIPMEKJhJMBfLbTk7FEtuTUMkGkVH31McvdSJ/GIftha68cmJJlTXDWNqPiivXXIfSqI5FiEBEjAIAQpmEoYQzyUVVcHI4xlccQ3gg2ONyC10Yd8Xdbhysw8jj2cRjopAGQrE2W4hqjyBkwRoFiEBgxGgYK5nkPXOY7/YvdbQPTiBQ5W3sLXQJdM/7C314kb9sAyrJoRR3/CRf+iRg2R9lMz1UPMzEjATAQrmOtZSZPRyfYd7abd7diGIG40jOPzJzTMAAAYISURBVPzlLZnHO7/Yi/Kv2uBqHsWCP6Jv4qxTFz8iARKwDgEK5ipb6otncV5bw+SMHz/WDuPwmTYUFLtl2gdHVQtcTSNY8Idk6geo+rJbPtdcVRffkgAJWIuADQVTiOFSEAt9mbwkduL33GIYnlujcpe7wOnCNnEKp7IZV2/249HTxTUzSS60rfUfgqMhgY0I2E8wl55FiuhAMkJQBE+eL+J67SAKz7YhX2RadLhx8FQTrvnu4/nUYmzjRvetBJSNePI7EiABCxOwn2BCdwl6NjmP6vohHK5qQ77TjbwiDz6rbMa3NX14MDanz0JlThwhkPoSXc5E19sQsvANwqGRAAksE7CYYMo9ail2wvVHvBOzSEWJyFliVFHQ1PEYB6va5fHEbU4xm3Sh4moXRsYXwdnj8o3Bv0iABNYSsJhg6q48YsNG5rbRogiFI7g78Axnf+jGB+X18ohifpFLRgf6qX4UU9N+qLHsiuKYInPirL1J+AkJkIBOwIKCqchnkiKrYvnFDuw+UoetDpf8ffJqJ9rujmMxGJa74OK0zotd8VhmHN4YJEACJPAqAuYSzNjzQzELFLNI/SSNhnBEwcDoNK7WDOBQZZN0/9nudOGjE40488M9md5BXMPZ46tuA35OAiQQDwFTCaYqIpZLsVQxMbmA6oZRGVvyvRIftjrcKCj2oOSr23A1DWNiKigFVUY3FyRiIhsPFF5DAiRAAusRMJVgLi6G0XRnDI6qVmxzuLHN6ZWzyX0VTfjR24e5hRAUec5bj1ouNn5EYrGlQBn0mVzvFuBnJEAC8RIwgGDGdral646IMq7q2RM1FWFFxcijaekP6Tjbih2lXmxz1CC/xCtnlsIt6PHTORmkV7j+LKedjXf4vI4ESIAE4ieQdcGUmy7SgVyBcPsZGJ2B2LA5eeUO9h6tk7vaeUVuFFa14lJ1H9p7JhAMirPbSzvhnDfGb25eSQIksBkCWRFMIZJC8KKKirGJedxsHEH55Q7sPSqeRYrjiDXYd7wR5671oLlrHHOLEd15PPavvuGjRyunXG7G/CxLAiSQCIGsCGbj7UcoOt+GXSVebHXUyKyJn5xswdlrvei4O4bp2QAURSzPRWRyvkiABEjAGASyIpjf++7j8y9bcf7He6i//QiTc6EXzy31zIki+C6zJhrjFmEvSIAElghkRTA1VbgHiWV5NNYPfR4p/l3+S3zF+eWSofibBEgg+wSyIpjZHzZ7QAIkQAKJE6BgJs6MJUiABGxKgIJpU8Nz2CRAAokToGAmzowlSIAEbEqAgmlTw3PYJEACiROgYCbOjCVIgARsSoCCaVPDc9gkQAKJE6BgJs6MJUiABGxKgIJpU8Nz2CRAAokToGAmzowlSIAEbEqAgmlTw3PYJEACiROgYCbOjCVIgARsSoCCaVPDc9gkQAKJE6BgJs6MJUiABGxKgIJpU8Nz2CRAAokToGAmzowlSIAEbEqAgmlTw3PYJEACiROgYCbOjCVIgARsSoCCaVPDc9gkQAKJE1ghmKK4yKLzd+/+BoFgKPHaWIIESIAETERA5Bb75uvLWFz0yzxjouvLucXWDuQVgvlrCuZaVvyEBEjAYgRURcXJE8fxi1/8KRyHDmLRH4CmatAURWayXT1cCuZqInxPAiRgGwKqpiEUCuOXf/7v8PY7W/CLP/sT7N6Rj4GBfiiKsobDGsGMKAr+4e//O3bmb8fuHQX8IQPeA7wHLHsP7NlZgN07d+Ddv/6veOedLdiy5U387Gdv4+c//0P83//1W0w9f75CNNcIpli/Dw8N4crFi7hy8RJ/yID3AO8By94DF86fx+ULF/Dbf/xHvP32m9jy1pt4a8ub+MOf/wEOfXoAkWh0Y8EU01AxTdU09aXHn0uPQfl7+ZEwWZAF7wGz3wNi0yccjuAv/8Ov5Ozyj//432LbP/8TOlpvySW5+P7l15oZ5stf8m8SIAESsDIBMTk8V/UlhFB+tHcPZmamNxwuBXNDPPySBEjAygSkYJ6pwvT0zItdcVUVq+v1XxTM9bnwUxIgAbsQ0LQXYimGvHoZ/jKG/w9P7sWSnRogMgAAAABJRU5ErkJggg==;" vertex="1" parent="1">
          <mxGeometry x="240" y="120" width="332" height="282" as="geometry" />
        </mxCell>
        <mxCell id="bRI3MN9ANpLZSxHK5Ll--2" value="70%" style="text;html=1;strokeColor=none;fillColor=none;align=center;verticalAlign=middle;whiteSpace=wrap;rounded=0;fontFamily=Calibri;fontSize=16;" vertex="1" parent="1">
          <mxGeometry x="250" y="402" width="40" height="18" as="geometry" />
        </mxCell>
        <mxCell id="bRI3MN9ANpLZSxHK5Ll--7" value="100%" style="text;html=1;strokeColor=none;fillColor=none;align=center;verticalAlign=middle;whiteSpace=wrap;rounded=0;fontFamily=Calibri;fontSize=16;" vertex="1" parent="1">
          <mxGeometry x="500" y="402" width="40" height="18" as="geometry" />
        </mxCell>
        <mxCell id="bRI3MN9ANpLZSxHK5Ll--8" value="" style="endArrow=none;html=1;rounded=0;exitX=0.5;exitY=0;exitDx=0;exitDy=0;dashed=1;strokeColor=#808080;" edge="1" parent="1" source="bRI3MN9ANpLZSxHK5Ll--7">
          <mxGeometry width="50" height="50" relative="1" as="geometry">
            <mxPoint x="480" y="550" as="sourcePoint" />
            <mxPoint x="520" y="143" as="targetPoint" />
          </mxGeometry>
        </mxCell>
        <mxCell id="bRI3MN9ANpLZSxHK5Ll--9" value="80%" style="text;html=1;strokeColor=none;fillColor=none;align=center;verticalAlign=middle;whiteSpace=wrap;rounded=0;fontFamily=Calibri;fontSize=16;" vertex="1" parent="1">
          <mxGeometry x="340" y="402" width="40" height="18" as="geometry" />
        </mxCell>
        <mxCell id="bRI3MN9ANpLZSxHK5Ll--10" value="90%" style="text;html=1;strokeColor=none;fillColor=none;align=center;verticalAlign=middle;whiteSpace=wrap;rounded=0;fontFamily=Calibri;fontSize=16;" vertex="1" parent="1">
          <mxGeometry x="423.5" y="402" width="40" height="18" as="geometry" />
        </mxCell>
        <mxCell id="bRI3MN9ANpLZSxHK5Ll--15" value="&lt;font style=&quot;font-size: 18px;&quot;&gt;Точность&lt;/font&gt;" style="text;html=1;strokeColor=none;fillColor=none;align=center;verticalAlign=middle;whiteSpace=wrap;rounded=0;fontFamily=Calibri;fontSize=16;" vertex="1" parent="1">
          <mxGeometry x="386" y="430" width="40" height="18" as="geometry" />
        </mxCell>
        <mxCell id="bRI3MN9ANpLZSxHK5Ll--16" value="Стоимость" style="text;html=1;strokeColor=none;fillColor=none;align=center;verticalAlign=middle;whiteSpace=wrap;rounded=0;fontFamily=Calibri;fontSize=18;horizontal=0;" vertex="1" parent="1">
          <mxGeometry x="200" y="252" width="40" height="18" as="geometry" />
        </mxCell>
        <mxCell id="bRI3MN9ANpLZSxHK5Ll--19" value="" style="endArrow=none;html=1;rounded=0;exitX=0.5;exitY=0;exitDx=0;exitDy=0;dashed=1;strokeColor=#808080;" edge="1" parent="1">
          <mxGeometry width="50" height="50" relative="1" as="geometry">
            <mxPoint x="270" y="402" as="sourcePoint" />
            <mxPoint x="269" y="147" as="targetPoint" />
          </mxGeometry>
        </mxCell>
        <mxCell id="bRI3MN9ANpLZSxHK5Ll--26" value="Минимальная точность" style="edgeLabel;html=1;align=left;verticalAlign=top;resizable=0;points=[];horizontal=0;fontFamily=Calibri;fontSize=14;fontColor=#808080;" vertex="1" connectable="0" parent="bRI3MN9ANpLZSxHK5Ll--19">
          <mxGeometry x="-0.1985" y="2" relative="1" as="geometry">
            <mxPoint as="offset" />
          </mxGeometry>
        </mxCell>
      </root>
    </mxGraphModel>
  </diagram>
</mxfile>
